HIERARCHY
ROOT Hips
{
	OFFSET 0.000000 0.000000 0.000000
	CHANNELS 6 Xposition Yposition Zposition Xrotation Yrotation Zrotation
	JOINT Chest
	{
		OFFSET 0.000000 1.151646 10.364816
		CHANNELS 3 Xrotation Yrotation Zrotation
		JOINT Chest2
		{
			OFFSET 0.000000 -0.000000 11.517722
			CHANNELS 3 Xrotation Yrotation Zrotation
			JOINT Chest3
			{
				OFFSET 0.000000 0.000996 10.515804
				CHANNELS 3 Xrotation Yrotation Zrotation
				JOINT Chest4
				{
					OFFSET 0.000000 0.000998 10.504063
					CHANNELS 3 Xrotation Yrotation Zrotation
					JOINT Neck
					{
						OFFSET 0.000000 -0.000001 14.700996
						CHANNELS 3 Xrotation Yrotation Zrotation
						JOINT Head
						{
							OFFSET 0.000000 -0.002144 9.779655
							CHANNELS 3 Xrotation Yrotation Zrotation
							End Site
							{
								OFFSET 0.000000 -0.000289 18.151802
							}
						}
					}
					JOINT RightCollar
					{
						OFFSET -3.200323 -0.000000 8.241253
						CHANNELS 3 Xrotation Yrotation Zrotation
						JOINT RightShoulder
						{
							OFFSET -14.963747 0.000000 0.000000
							CHANNELS 3 Xrotation Yrotation Zrotation
							JOINT RightElbow
							{
								OFFSET -31.975845 0.000000 0.000000
								CHANNELS 3 Xrotation Yrotation Zrotation
								JOINT RightWrist
								{
									OFFSET -26.149033 0.000000 0.000000
									CHANNELS 3 Xrotation Yrotation Zrotation
									End Site
									{
										OFFSET -19.551819 0.000000 0.000000
									}
								}
							}
						}
					}
					JOINT LeftCollar
					{
						OFFSET 3.200323 -0.000000 8.241253
						CHANNELS 3 Xrotation Yrotation Zrotation
						JOINT LeftShoulder
						{
							OFFSET 14.963747 0.000000 0.000000
							CHANNELS 3 Xrotation Yrotation Zrotation
							JOINT LeftElbow
							{
								OFFSET 31.975845 0.000000 0.000000
								CHANNELS 3 Xrotation Yrotation Zrotation
								JOINT LeftWrist
								{
									OFFSET 26.149033 0.000000 0.000000
									CHANNELS 3 Xrotation Yrotation Zrotation
									End Site
									{
										OFFSET 19.551819 0.000000 0.000000
									}
								}
							}
						}
					}
				}
			}
		}
	}
	JOINT RightHip
	{
		OFFSET -8.525852 0.000400 0.003604
		CHANNELS 3 Xrotation Yrotation Zrotation
		JOINT RightKnee
		{
			OFFSET 0.000000 0.000238 -44.087433
			CHANNELS 3 Xrotation Yrotation Zrotation
			JOINT RightAnkle
			{
				OFFSET 0.000000 0.000399 -43.085331
				CHANNELS 3 Xrotation Yrotation Zrotation
				JOINT RightToe
				{
					OFFSET 0.000000 -18.057957 -7.938347
					CHANNELS 3 Xrotation Yrotation Zrotation
					End Site
					{
						OFFSET 0.000000 -7.444336 -1.698112
					}
				}
			}
		}
	}
	JOINT LeftHip
	{
		OFFSET 8.525852 0.000142 0.001277
		CHANNELS 3 Xrotation Yrotation Zrotation
		JOINT LeftKnee
		{
			OFFSET 0.000000 0.000238 -44.087433
			CHANNELS 3 Xrotation Yrotation Zrotation
			JOINT LeftAnkle
			{
				OFFSET 0.000000 0.000399 -43.085323
				CHANNELS 3 Xrotation Yrotation Zrotation
				JOINT LeftToe
				{
					OFFSET 0.000000 -18.057957 -7.938347
					CHANNELS 3 Xrotation Yrotation Zrotation
					End Site
					{
						OFFSET 0.000000 -7.444336 -1.698112
					}
				}
			}
		}
	}
}
MOTION
Frames: 9
Frame Time: 0.004184
-196.355469 -690.789978 95.182983 0.021503 2.744568 10.362037 4.623136 -2.102473 2.347900 -3.782693 -1.056607 0.919844 2.037738 -1.056700 0.919737 7.363405 -0.721761 0.763552 15.136995 -1.155969 -2.350617 -7.922135 -1.231127 -4.705475 -3.944614 -6.459188 4.755249 -17.167713 -64.770397 7.161211 7.936471 -4.872219 6.796947 4.273178 5.598385 0.649969 -2.300852 7.970866 1.087584 -9.113978 76.221742 12.720030 22.106305 -0.898772 -5.189330 -0.239971 -3.126854 4.927107 8.180962 -4.471256 -4.061467 19.930173 0.830889 1.682239 -10.574822 -3.326771 2.530382 -18.044127 5.132368 0.819041 -25.023844 -3.264841 7.647463 9.982365 0.615815 -4.102724 -10.996340 3.290457 -3.865603 0.000000 0.000001 -0.000001 
-196.233185 -691.286133 95.135666 0.048803 2.728120 10.302016 4.583289 -2.080664 2.346552 -3.800259 -1.046731 0.920648 2.020173 -1.046826 0.920544 7.350235 -0.714303 0.763459 15.156820 -1.152070 -2.344886 -7.885250 -1.226851 -4.693399 -3.917562 -6.464081 4.752498 -17.200552 -64.803728 7.058583 7.958011 -4.861774 6.811334 4.275023 5.582995 0.650336 -2.281575 7.968268 1.097032 -9.165823 76.204571 12.894026 22.148738 -0.923730 -5.152881 -0.234283 -3.119379 4.935615 8.338805 -4.410919 -4.233519 20.136752 0.900793 1.762023 -10.500828 -3.438910 2.596402 -18.473249 5.180339 0.845197 -24.891083 -3.136204 7.773851 9.990309 0.513873 -4.155651 -11.083464 3.242982 -3.713087 0.000002 0.000001 -0.000001 
-196.108429 -691.784973 95.087334 0.078284 2.709873 10.238916 4.540525 -2.057798 2.345610 -3.819116 -1.036400 0.921704 2.001315 -1.036495 0.921595 7.336094 -0.706483 0.763522 15.177468 -1.147999 -2.339139 -7.846861 -1.222290 -4.681216 -3.890687 -6.467500 4.749311 -17.244179 -64.841759 6.931236 7.981774 -4.851400 6.828889 4.276072 5.568672 0.650656 -2.261360 7.966811 1.107329 -9.237549 76.184579 13.081592 22.184528 -0.945382 -5.123559 -0.229469 -3.112367 4.942931 8.484264 -4.346052 -4.396207 20.365718 0.971911 1.829891 -10.427143 -3.556570 2.665372 -18.898227 5.228926 0.870814 -24.761133 -3.008962 7.885011 10.016162 0.407466 -4.254178 -11.179010 3.170614 -3.579802 0.000000 0.000000 -0.000001 
-195.979797 -692.287476 95.035164 0.110510 2.690826 10.172408 4.493393 -2.034710 2.345243 -3.839914 -1.025982 0.923039 1.980516 -1.026077 0.922934 7.320499 -0.698575 0.763792 15.200007 -1.143488 -2.333530 -7.804925 -1.216943 -4.669102 -3.862450 -6.467714 4.745814 -17.300968 -64.884864 6.775274 8.008888 -4.841338 6.851233 4.276653 5.553934 0.650993 -2.238705 7.966302 1.119077 -9.327042 76.163084 13.282682 22.214149 -0.963794 -5.102229 -0.225590 -3.105762 4.948516 8.625759 -4.279318 -4.553271 20.605199 1.045920 1.893224 -10.356713 -3.674383 2.732647 -19.341042 5.274351 0.897569 -24.636617 -2.877588 7.987911 10.088443 0.283600 -4.398810 -11.304161 3.062438 -3.476339 0.000003 0.000000 -0.000001 
-195.846283 -692.794678 94.977448 0.145726 2.671497 10.102718 4.441110 -2.011922 2.345304 -3.863008 -1.015694 0.924569 1.957424 -1.015791 0.924460 7.303181 -0.690746 0.764218 15.225260 -1.138358 -2.328128 -7.757919 -1.210483 -4.657113 -3.831598 -6.463837 4.741827 -17.370346 -64.933119 6.591167 8.040413 -4.831600 6.878833 4.277287 5.537385 0.651246 -2.212698 7.966457 1.132376 -9.427416 76.141842 13.491970 22.238869 -0.979582 -5.088475 -0.222591 -3.099530 4.952025 8.769734 -4.212291 -4.709758 20.845589 1.124182 1.958709 -10.290504 -3.788687 2.795296 -19.817937 5.313978 0.926769 -24.519715 -2.736593 8.090222 10.233149 0.131763 -4.580291 -11.471098 2.914154 -3.403423 0.000002 0.000000 -0.000001 
-195.708572 -693.305664 94.915726 0.183549 2.651254 10.030292 4.384528 -1.988984 2.345553 -3.888007 -1.005330 0.926205 1.932423 -1.005427 0.926099 7.284432 -0.682850 0.764720 15.252719 -1.132744 -2.322824 -7.706797 -1.203178 -4.645106 -3.798813 -6.456928 4.737174 -17.449933 -64.986108 6.382604 8.075933 -4.821968 6.910464 4.277984 5.519565 0.651299 -2.184203 7.967300 1.146750 -9.536418 76.120553 13.706226 22.259018 -0.993043 -5.081283 -0.220392 -3.093716 4.953759 8.912219 -4.143378 -4.865195 21.092153 1.205980 2.023426 -10.226355 -3.902229 2.855970 -20.318285 5.349638 0.957625 -24.409260 -2.587882 8.190038 10.439255 -0.042778 -4.792281 -11.667146 2.732910 -3.351556 0.000002 0.000000 -0.000001 
-195.567337 -693.819702 94.851578 0.223594 2.629476 9.955568 4.324515 -1.965451 2.345749 -3.914530 -0.994683 0.927864 1.905900 -0.994781 0.927758 7.264544 -0.674737 0.765219 15.281862 -1.126781 -2.317514 -7.652534 -1.195292 -4.632948 -3.764785 -6.448046 4.731676 -17.537371 -65.043454 6.153272 8.115022 -4.812217 6.944921 4.278760 5.501013 0.651045 -2.154083 7.968851 1.161720 -9.651826 76.098956 13.922242 22.274917 -1.004468 -5.079638 -0.218909 -3.088359 4.954008 9.049236 -4.070978 -5.019116 21.350176 1.290601 2.084462 -10.162045 -4.017694 2.917376 -20.831449 5.383228 0.989341 -24.304076 -2.433367 8.285432 10.695782 -0.234680 -5.028535 -11.879687 2.525938 -3.311220 0.000002 -0.000000 -0.000001 
-195.423233 -694.335938 94.786575 0.265477 2.605536 9.878999 4.261931 -1.940866 2.345657 -3.942189 -0.983544 0.929456 1.878242 -0.983643 0.929355 7.243805 -0.666261 0.765639 15.312178 -1.120605 -2.312094 -7.596086 -1.187098 -4.620508 -3.730196 -6.438255 4.725141 -17.630248 -65.104755 5.906872 8.157266 -4.802121 6.980985 4.279628 5.482265 0.650368 -2.123195 7.971127 1.176800 -9.771392 76.076771 14.136849 22.286882 -1.014152 -5.082521 -0.218060 -3.083492 4.953067 9.176823 -3.993472 -5.171035 21.624965 1.377320 2.138918 -10.095330 -4.137697 2.982302 -21.346764 5.416700 1.021134 -24.202975 -2.274975 8.374520 10.991765 -0.438475 -5.282965 -12.096094 2.300622 -3.272884 0.000001 -0.000000 0.000000 
-195.276962 -694.853699 94.722290 0.308808 2.578810 9.801021 4.197635 -1.914776 2.345041 -3.970596 -0.971704 0.930905 1.849836 -0.971803 0.930803 7.222504 -0.657269 0.765893 15.343151 -1.114353 -2.306458 -7.538429 -1.178862 -4.607649 -3.695727 -6.428617 4.717378 -17.726182 -65.169663 5.647120 8.202237 -4.791447 7.017439 4.280607 5.463867 0.649160 -2.092402 7.974150 1.191517 -9.892898 76.053753 14.346853 22.295252 -1.022389 -5.088915 -0.217759 -3.079160 4.951231 9.291013 -3.909227 -5.320473 21.921796 1.465402 2.183905 -10.023920 -4.264780 3.053590 -21.853643 5.452090 1.052235 -24.104716 -2.114621 8.455391 11.316294 -0.648521 -5.549723 -12.303793 2.064560 -3.227023 0.000000 0.000000 -0.000001 
